<mxfile host="app.diagrams.net" modified="2022-01-26T13:29:14.302Z" agent="5.0 (Windows NT 10.0; Win64; x64) AppleWebKit/537.36 (KHTML, like Gecko) Chrome/97.0.4692.99 Safari/537.36" etag="W4r_XkfzS8M-tIVfyQdc" version="16.4.6" type="github">
  <diagram id="XKLkXmCNqXPoIiultiR2" name="Page-1">
    <mxGraphModel dx="1278" dy="589" grid="1" gridSize="10" guides="1" tooltips="1" connect="1" arrows="1" fold="1" page="1" pageScale="1" pageWidth="850" pageHeight="1100" math="0" shadow="0">
      <root>
        <mxCell id="0" />
        <mxCell id="1" parent="0" />
        <mxCell id="kt7u8fpJiEBdS28ugQBS-1" value="" style="rounded=0;whiteSpace=wrap;html=1;fontStyle=1" vertex="1" parent="1">
          <mxGeometry x="70" y="20" width="770" height="60" as="geometry" />
        </mxCell>
        <mxCell id="kt7u8fpJiEBdS28ugQBS-2" value="PHASE 1&lt;br&gt;Formation" style="text;html=1;strokeColor=none;fillColor=none;align=center;verticalAlign=middle;whiteSpace=wrap;rounded=0;fontStyle=1" vertex="1" parent="1">
          <mxGeometry x="70" y="20" width="90" height="60" as="geometry" />
        </mxCell>
        <mxCell id="kt7u8fpJiEBdS28ugQBS-3" value="PHASE 2&lt;br&gt;Requirement/Planning" style="text;html=1;strokeColor=none;fillColor=none;align=center;verticalAlign=middle;whiteSpace=wrap;rounded=0;fontStyle=1" vertex="1" parent="1">
          <mxGeometry x="180" y="20" width="100" height="60" as="geometry" />
        </mxCell>
        <mxCell id="kt7u8fpJiEBdS28ugQBS-4" value="PHASE 3&lt;br&gt;Design" style="text;html=1;strokeColor=none;fillColor=none;align=center;verticalAlign=middle;whiteSpace=wrap;rounded=0;fontStyle=1" vertex="1" parent="1">
          <mxGeometry x="285" y="20" width="100" height="60" as="geometry" />
        </mxCell>
        <mxCell id="kt7u8fpJiEBdS28ugQBS-5" value="PHASE 4&lt;br&gt;Construct" style="text;html=1;strokeColor=none;fillColor=none;align=center;verticalAlign=middle;whiteSpace=wrap;rounded=0;fontStyle=1" vertex="1" parent="1">
          <mxGeometry x="391" y="20" width="100" height="60" as="geometry" />
        </mxCell>
        <mxCell id="kt7u8fpJiEBdS28ugQBS-6" value="PHASE 5&lt;br&gt;Test" style="text;html=1;strokeColor=none;fillColor=none;align=center;verticalAlign=middle;whiteSpace=wrap;rounded=0;fontStyle=1" vertex="1" parent="1">
          <mxGeometry x="500" y="20" width="100" height="60" as="geometry" />
        </mxCell>
        <mxCell id="kt7u8fpJiEBdS28ugQBS-7" value="PHASE 6&lt;br&gt;Product release" style="text;html=1;strokeColor=none;fillColor=none;align=center;verticalAlign=middle;whiteSpace=wrap;rounded=0;fontStyle=1" vertex="1" parent="1">
          <mxGeometry x="610" y="20" width="100" height="60" as="geometry" />
        </mxCell>
        <mxCell id="kt7u8fpJiEBdS28ugQBS-8" value="PHASE 7&lt;br&gt;Post Implementation&amp;nbsp;" style="text;html=1;strokeColor=none;fillColor=none;align=center;verticalAlign=middle;whiteSpace=wrap;rounded=0;fontStyle=1" vertex="1" parent="1">
          <mxGeometry x="720" y="20" width="120" height="60" as="geometry" />
        </mxCell>
        <mxCell id="kt7u8fpJiEBdS28ugQBS-9" value="" style="edgeStyle=orthogonalEdgeStyle;rounded=0;orthogonalLoop=1;jettySize=auto;html=1;fontStyle=1" edge="1" parent="1" source="kt7u8fpJiEBdS28ugQBS-11" target="kt7u8fpJiEBdS28ugQBS-14">
          <mxGeometry relative="1" as="geometry" />
        </mxCell>
        <mxCell id="kt7u8fpJiEBdS28ugQBS-10" value="" style="edgeStyle=orthogonalEdgeStyle;rounded=0;orthogonalLoop=1;jettySize=auto;html=1;endArrow=classic;endFill=1;fontStyle=1" edge="1" parent="1" source="kt7u8fpJiEBdS28ugQBS-11" target="kt7u8fpJiEBdS28ugQBS-29">
          <mxGeometry relative="1" as="geometry" />
        </mxCell>
        <mxCell id="kt7u8fpJiEBdS28ugQBS-11" value="Project Initiation&amp;nbsp;" style="rounded=0;whiteSpace=wrap;html=1;fontStyle=1" vertex="1" parent="1">
          <mxGeometry x="70" y="120" width="90" height="60" as="geometry" />
        </mxCell>
        <mxCell id="kt7u8fpJiEBdS28ugQBS-12" value="" style="edgeStyle=orthogonalEdgeStyle;rounded=0;orthogonalLoop=1;jettySize=auto;html=1;fontStyle=1" edge="1" parent="1" source="kt7u8fpJiEBdS28ugQBS-14" target="kt7u8fpJiEBdS28ugQBS-17">
          <mxGeometry relative="1" as="geometry" />
        </mxCell>
        <mxCell id="kt7u8fpJiEBdS28ugQBS-13" value="" style="edgeStyle=orthogonalEdgeStyle;rounded=0;orthogonalLoop=1;jettySize=auto;html=1;entryX=0.5;entryY=0;entryDx=0;entryDy=0;startArrow=none;startFill=0;endArrow=classic;endFill=1;fontStyle=1" edge="1" parent="1" source="kt7u8fpJiEBdS28ugQBS-14" target="kt7u8fpJiEBdS28ugQBS-47">
          <mxGeometry relative="1" as="geometry" />
        </mxCell>
        <mxCell id="kt7u8fpJiEBdS28ugQBS-14" value="Requirements Definition" style="rounded=0;whiteSpace=wrap;html=1;fontStyle=1" vertex="1" parent="1">
          <mxGeometry x="180" y="120" width="90" height="60" as="geometry" />
        </mxCell>
        <mxCell id="kt7u8fpJiEBdS28ugQBS-15" value="" style="edgeStyle=orthogonalEdgeStyle;rounded=0;orthogonalLoop=1;jettySize=auto;html=1;fontStyle=1" edge="1" parent="1" source="kt7u8fpJiEBdS28ugQBS-17" target="kt7u8fpJiEBdS28ugQBS-20">
          <mxGeometry relative="1" as="geometry" />
        </mxCell>
        <mxCell id="kt7u8fpJiEBdS28ugQBS-16" value="" style="edgeStyle=orthogonalEdgeStyle;rounded=0;orthogonalLoop=1;jettySize=auto;html=1;fontStyle=1" edge="1" parent="1" source="kt7u8fpJiEBdS28ugQBS-17" target="kt7u8fpJiEBdS28ugQBS-42">
          <mxGeometry relative="1" as="geometry" />
        </mxCell>
        <mxCell id="kt7u8fpJiEBdS28ugQBS-17" value="Design" style="rounded=0;whiteSpace=wrap;html=1;fontStyle=1" vertex="1" parent="1">
          <mxGeometry x="290" y="120" width="90" height="60" as="geometry" />
        </mxCell>
        <mxCell id="kt7u8fpJiEBdS28ugQBS-18" value="" style="edgeStyle=orthogonalEdgeStyle;rounded=0;orthogonalLoop=1;jettySize=auto;html=1;fontStyle=1" edge="1" parent="1" source="kt7u8fpJiEBdS28ugQBS-20" target="kt7u8fpJiEBdS28ugQBS-23">
          <mxGeometry relative="1" as="geometry" />
        </mxCell>
        <mxCell id="kt7u8fpJiEBdS28ugQBS-19" value="" style="edgeStyle=orthogonalEdgeStyle;rounded=0;orthogonalLoop=1;jettySize=auto;html=1;fontStyle=1" edge="1" parent="1" source="kt7u8fpJiEBdS28ugQBS-20" target="kt7u8fpJiEBdS28ugQBS-39">
          <mxGeometry relative="1" as="geometry" />
        </mxCell>
        <mxCell id="kt7u8fpJiEBdS28ugQBS-20" value="Construct" style="rounded=0;whiteSpace=wrap;html=1;fontStyle=1" vertex="1" parent="1">
          <mxGeometry x="400" y="120" width="90" height="60" as="geometry" />
        </mxCell>
        <mxCell id="kt7u8fpJiEBdS28ugQBS-21" value="" style="edgeStyle=orthogonalEdgeStyle;rounded=0;orthogonalLoop=1;jettySize=auto;html=1;fontStyle=1" edge="1" parent="1" source="kt7u8fpJiEBdS28ugQBS-23" target="kt7u8fpJiEBdS28ugQBS-26">
          <mxGeometry relative="1" as="geometry" />
        </mxCell>
        <mxCell id="kt7u8fpJiEBdS28ugQBS-22" value="" style="edgeStyle=orthogonalEdgeStyle;rounded=0;orthogonalLoop=1;jettySize=auto;html=1;entryX=0.5;entryY=0;entryDx=0;entryDy=0;fontStyle=1" edge="1" parent="1" source="kt7u8fpJiEBdS28ugQBS-23" target="kt7u8fpJiEBdS28ugQBS-36">
          <mxGeometry relative="1" as="geometry" />
        </mxCell>
        <mxCell id="kt7u8fpJiEBdS28ugQBS-23" value="Test" style="rounded=0;whiteSpace=wrap;html=1;fontStyle=1" vertex="1" parent="1">
          <mxGeometry x="510" y="120" width="100" height="60" as="geometry" />
        </mxCell>
        <mxCell id="kt7u8fpJiEBdS28ugQBS-24" value="" style="edgeStyle=orthogonalEdgeStyle;rounded=0;orthogonalLoop=1;jettySize=auto;html=1;fontStyle=1" edge="1" parent="1" source="kt7u8fpJiEBdS28ugQBS-26" target="kt7u8fpJiEBdS28ugQBS-28">
          <mxGeometry relative="1" as="geometry" />
        </mxCell>
        <mxCell id="kt7u8fpJiEBdS28ugQBS-25" value="" style="edgeStyle=orthogonalEdgeStyle;rounded=0;orthogonalLoop=1;jettySize=auto;html=1;fontStyle=1" edge="1" parent="1" source="kt7u8fpJiEBdS28ugQBS-26" target="kt7u8fpJiEBdS28ugQBS-33">
          <mxGeometry relative="1" as="geometry" />
        </mxCell>
        <mxCell id="kt7u8fpJiEBdS28ugQBS-26" value="Product Release" style="rounded=0;whiteSpace=wrap;html=1;fontStyle=1" vertex="1" parent="1">
          <mxGeometry x="630" y="120" width="90" height="60" as="geometry" />
        </mxCell>
        <mxCell id="kt7u8fpJiEBdS28ugQBS-27" value="" style="edgeStyle=orthogonalEdgeStyle;rounded=0;orthogonalLoop=1;jettySize=auto;html=1;fontStyle=1" edge="1" parent="1" source="kt7u8fpJiEBdS28ugQBS-28" target="kt7u8fpJiEBdS28ugQBS-31">
          <mxGeometry relative="1" as="geometry" />
        </mxCell>
        <mxCell id="kt7u8fpJiEBdS28ugQBS-28" value="Enhancement Maintenance&amp;nbsp;" style="rounded=0;whiteSpace=wrap;html=1;fontStyle=1" vertex="1" parent="1">
          <mxGeometry x="735" y="120" width="90" height="60" as="geometry" />
        </mxCell>
        <mxCell id="kt7u8fpJiEBdS28ugQBS-29" value="Buying Plot/Area for project" style="rounded=0;whiteSpace=wrap;html=1;fontStyle=1" vertex="1" parent="1">
          <mxGeometry x="70" y="210" width="90" height="150" as="geometry" />
        </mxCell>
        <mxCell id="kt7u8fpJiEBdS28ugQBS-30" value="" style="edgeStyle=orthogonalEdgeStyle;rounded=0;orthogonalLoop=1;jettySize=auto;html=1;fontSize=14;startArrow=none;startFill=0;endArrow=classic;endFill=1;strokeWidth=2;" edge="1" parent="1" source="kt7u8fpJiEBdS28ugQBS-31" target="kt7u8fpJiEBdS28ugQBS-53">
          <mxGeometry relative="1" as="geometry" />
        </mxCell>
        <mxCell id="kt7u8fpJiEBdS28ugQBS-31" value="Furniture, accessories etc" style="rounded=0;whiteSpace=wrap;html=1;fontStyle=1" vertex="1" parent="1">
          <mxGeometry x="730" y="210" width="100" height="60" as="geometry" />
        </mxCell>
        <mxCell id="kt7u8fpJiEBdS28ugQBS-32" value="" style="edgeStyle=orthogonalEdgeStyle;rounded=0;orthogonalLoop=1;jettySize=auto;html=1;endArrow=none;endFill=0;fontStyle=1" edge="1" parent="1" source="kt7u8fpJiEBdS28ugQBS-33" target="kt7u8fpJiEBdS28ugQBS-34">
          <mxGeometry relative="1" as="geometry" />
        </mxCell>
        <mxCell id="kt7u8fpJiEBdS28ugQBS-33" value="Operational Acceptance&lt;br&gt;Can start living in the house&amp;nbsp;" style="rounded=0;whiteSpace=wrap;html=1;fontStyle=1" vertex="1" parent="1">
          <mxGeometry x="630" y="210" width="90" height="60" as="geometry" />
        </mxCell>
        <mxCell id="kt7u8fpJiEBdS28ugQBS-34" value="Acceptance Document by owner for builder" style="rounded=0;whiteSpace=wrap;html=1;fontStyle=1" vertex="1" parent="1">
          <mxGeometry x="630" y="290" width="90" height="60" as="geometry" />
        </mxCell>
        <mxCell id="kt7u8fpJiEBdS28ugQBS-35" value="" style="edgeStyle=orthogonalEdgeStyle;rounded=0;orthogonalLoop=1;jettySize=auto;html=1;endArrow=none;endFill=0;fontStyle=1" edge="1" parent="1" source="kt7u8fpJiEBdS28ugQBS-36" target="kt7u8fpJiEBdS28ugQBS-37">
          <mxGeometry relative="1" as="geometry" />
        </mxCell>
        <mxCell id="kt7u8fpJiEBdS28ugQBS-36" value="System Test&lt;br&gt;Tesing material and connection" style="rounded=0;whiteSpace=wrap;html=1;fontStyle=1" vertex="1" parent="1">
          <mxGeometry x="510" y="210" width="100" height="60" as="geometry" />
        </mxCell>
        <mxCell id="kt7u8fpJiEBdS28ugQBS-37" value="Test Summary by supervisor" style="rounded=0;whiteSpace=wrap;html=1;fontStyle=1" vertex="1" parent="1">
          <mxGeometry x="510" y="290" width="100" height="60" as="geometry" />
        </mxCell>
        <mxCell id="kt7u8fpJiEBdS28ugQBS-38" value="" style="edgeStyle=orthogonalEdgeStyle;rounded=0;orthogonalLoop=1;jettySize=auto;html=1;endArrow=none;endFill=0;fontStyle=1" edge="1" parent="1" source="kt7u8fpJiEBdS28ugQBS-39" target="kt7u8fpJiEBdS28ugQBS-40">
          <mxGeometry relative="1" as="geometry" />
        </mxCell>
        <mxCell id="kt7u8fpJiEBdS28ugQBS-39" value="3D model/ Prototype&amp;nbsp;" style="rounded=0;whiteSpace=wrap;html=1;fontStyle=1" vertex="1" parent="1">
          <mxGeometry x="400" y="210" width="90" height="60" as="geometry" />
        </mxCell>
        <mxCell id="kt7u8fpJiEBdS28ugQBS-40" value="Model Review by owner/ supervisor&amp;nbsp;" style="rounded=0;whiteSpace=wrap;html=1;fontStyle=1" vertex="1" parent="1">
          <mxGeometry x="400" y="290" width="90" height="60" as="geometry" />
        </mxCell>
        <mxCell id="kt7u8fpJiEBdS28ugQBS-41" value="" style="edgeStyle=orthogonalEdgeStyle;rounded=0;orthogonalLoop=1;jettySize=auto;html=1;endArrow=none;endFill=0;fontStyle=1" edge="1" parent="1" source="kt7u8fpJiEBdS28ugQBS-42" target="kt7u8fpJiEBdS28ugQBS-44">
          <mxGeometry relative="1" as="geometry" />
        </mxCell>
        <mxCell id="kt7u8fpJiEBdS28ugQBS-42" value="Architecture&lt;br&gt;Interior Design&amp;nbsp;" style="rounded=0;whiteSpace=wrap;html=1;fontStyle=1" vertex="1" parent="1">
          <mxGeometry x="290" y="210" width="90" height="60" as="geometry" />
        </mxCell>
        <mxCell id="kt7u8fpJiEBdS28ugQBS-43" value="" style="edgeStyle=orthogonalEdgeStyle;rounded=0;orthogonalLoop=1;jettySize=auto;html=1;endArrow=none;endFill=0;fontStyle=1" edge="1" parent="1" source="kt7u8fpJiEBdS28ugQBS-44" target="kt7u8fpJiEBdS28ugQBS-45">
          <mxGeometry relative="1" as="geometry" />
        </mxCell>
        <mxCell id="kt7u8fpJiEBdS28ugQBS-44" value="Design review by owner/ supervisor&amp;nbsp;" style="rounded=0;whiteSpace=wrap;html=1;fontStyle=1" vertex="1" parent="1">
          <mxGeometry x="290" y="290" width="90" height="60" as="geometry" />
        </mxCell>
        <mxCell id="kt7u8fpJiEBdS28ugQBS-45" value="Detailed Project Development&lt;br&gt;Floor plan" style="rounded=0;whiteSpace=wrap;html=1;fontStyle=1" vertex="1" parent="1">
          <mxGeometry x="290" y="370" width="90" height="60" as="geometry" />
        </mxCell>
        <mxCell id="kt7u8fpJiEBdS28ugQBS-46" value="" style="edgeStyle=orthogonalEdgeStyle;rounded=0;orthogonalLoop=1;jettySize=auto;html=1;endArrow=none;endFill=0;fontStyle=1" edge="1" parent="1" source="kt7u8fpJiEBdS28ugQBS-47" target="kt7u8fpJiEBdS28ugQBS-49">
          <mxGeometry relative="1" as="geometry" />
        </mxCell>
        <mxCell id="kt7u8fpJiEBdS28ugQBS-47" value="Project Management Plan (Charter)" style="rounded=0;whiteSpace=wrap;html=1;fontStyle=1" vertex="1" parent="1">
          <mxGeometry x="180" y="210" width="90" height="60" as="geometry" />
        </mxCell>
        <mxCell id="kt7u8fpJiEBdS28ugQBS-48" value="" style="edgeStyle=orthogonalEdgeStyle;rounded=0;orthogonalLoop=1;jettySize=auto;html=1;endArrow=none;endFill=0;fontStyle=1" edge="1" parent="1" source="kt7u8fpJiEBdS28ugQBS-49" target="kt7u8fpJiEBdS28ugQBS-51">
          <mxGeometry relative="1" as="geometry" />
        </mxCell>
        <mxCell id="kt7u8fpJiEBdS28ugQBS-49" value="Functional Requirements&amp;nbsp;&lt;br&gt;Plumbing, Gas connection, electric connection&amp;nbsp;" style="rounded=0;whiteSpace=wrap;html=1;fontStyle=1" vertex="1" parent="1">
          <mxGeometry x="180" y="290" width="90" height="90" as="geometry" />
        </mxCell>
        <mxCell id="kt7u8fpJiEBdS28ugQBS-50" value="" style="edgeStyle=orthogonalEdgeStyle;rounded=0;orthogonalLoop=1;jettySize=auto;html=1;endArrow=none;endFill=0;fontStyle=1" edge="1" parent="1" source="kt7u8fpJiEBdS28ugQBS-51" target="kt7u8fpJiEBdS28ugQBS-52">
          <mxGeometry relative="1" as="geometry" />
        </mxCell>
        <mxCell id="kt7u8fpJiEBdS28ugQBS-51" value="Technical Requirements&amp;nbsp;&lt;br&gt;Raw Materials&amp;nbsp;" style="rounded=0;whiteSpace=wrap;html=1;fontStyle=1" vertex="1" parent="1">
          <mxGeometry x="180" y="390" width="90" height="60" as="geometry" />
        </mxCell>
        <mxCell id="kt7u8fpJiEBdS28ugQBS-52" value="Requirements review and approval" style="rounded=0;whiteSpace=wrap;html=1;fontStyle=1" vertex="1" parent="1">
          <mxGeometry x="180" y="470" width="90" height="60" as="geometry" />
        </mxCell>
        <mxCell id="kt7u8fpJiEBdS28ugQBS-53" value="Pest Control etc" style="rounded=0;whiteSpace=wrap;html=1;fontStyle=1" vertex="1" parent="1">
          <mxGeometry x="730" y="290" width="100" height="60" as="geometry" />
        </mxCell>
      </root>
    </mxGraphModel>
  </diagram>
</mxfile>
